<?xml version="1.0" standalone="no"?>
<!DOCTYPE svg PUBLIC "-//W3C//DTD SVG 20010904//EN"
 "http://www.w3.org/TR/2001/REC-SVG-20010904/DTD/svg10.dtd">
<svg version="1.0" xmlns="http://www.w3.org/2000/svg"
 width="3751.000000pt" height="3751.000000pt" viewBox="0 0 3751.000000 3751.000000"
 preserveAspectRatio="xMidYMid meet">
<metadata>
Created by potrace 1.11, written by Peter Selinger 2001-2013
</metadata>
<g transform="translate(0.000000,3751.000000) scale(0.100000,-0.100000)"
fill="#000000" stroke="none">
<path d="M10469 36401 c-27 -47 -54 -93 -60 -101 -5 -8 -50 -85 -100 -170 -51
-85 -148 -249 -217 -365 -68 -115 -132 -223 -142 -240 -13 -24 -142 -241 -259
-437 -9 -15 -41 -69 -71 -120 -30 -51 -128 -216 -217 -366 -90 -151 -163 -278
-163 -283 0 -5 -4 -9 -10 -9 -5 0 -10 -4 -10 -9 0 -5 -53 -99 -118 -208 -171
-287 -377 -632 -400 -673 -10 -19 -42 -71 -69 -115 -27 -44 -52 -87 -56 -95
-4 -8 -17 -32 -29 -52 -22 -35 -106 -176 -243 -408 -159 -268 -289 -487 -304
-512 -9 -15 -43 -73 -77 -130 -33 -57 -148 -249 -254 -428 -106 -179 -198
-334 -204 -345 -16 -27 -238 -403 -294 -495 -25 -41 -50 -84 -56 -95 -6 -11
-64 -108 -127 -215 -373 -625 -719 -1213 -719 -1220 0 -5 -3 -10 -8 -12 -6 -2
-232 -379 -332 -553 -15 -27 -66 -113 -361 -609 -49 -82 -89 -153 -89 -157 0
-5 -4 -9 -10 -9 -5 0 -10 -4 -10 -9 0 -8 -20 -42 -120 -210 -19 -32 -62 -105
-95 -160 -33 -56 -65 -110 -70 -119 -6 -9 -37 -62 -69 -117 -33 -55 -116 -194
-184 -310 -69 -115 -132 -222 -141 -237 -9 -15 -52 -87 -95 -160 -44 -73 -93
-157 -110 -186 -34 -58 -34 -59 -87 -147 -20 -33 -125 -211 -234 -395 -109
-184 -238 -401 -287 -482 -48 -81 -88 -152 -88 -158 0 -5 -4 -10 -10 -10 -5 0
-10 -4 -10 -9 0 -5 -24 -49 -53 -98 -71 -116 -188 -313 -201 -338 -6 -11 -19
-31 -27 -45 -9 -14 -70 -115 -134 -225 -65 -110 -161 -272 -213 -360 -52 -88
-118 -198 -145 -245 -28 -47 -67 -112 -87 -145 -20 -33 -48 -80 -62 -105 -14
-25 -109 -186 -212 -358 -102 -172 -193 -325 -201 -340 -9 -15 -24 -40 -34
-57 -30 -50 -193 -324 -515 -870 -170 -286 -316 -532 -327 -547 -10 -15 -19
-29 -19 -32 0 -2 -55 -96 -121 -208 -236 -395 -309 -518 -568 -958 -145 -245
-272 -457 -282 -472 -10 -15 -19 -29 -19 -32 0 -2 -60 -105 -133 -227 -74
-123 -193 -325 -267 -449 -73 -124 -150 -253 -171 -288 -22 -35 -39 -66 -39
-69 0 -4 -6 -14 -14 -22 -12 -14 -4 -33 70 -155 46 -77 84 -141 84 -143 0 -2
11 -20 24 -41 23 -36 187 -312 485 -817 78 -132 146 -247 151 -255 20 -33 346
-579 370 -621 13 -23 155 -262 214 -362 11 -18 24 -41 30 -52 24 -41 82 -138
98 -163 10 -15 21 -34 25 -42 4 -8 20 -37 37 -65 17 -27 38 -62 46 -76 8 -15
98 -167 200 -338 102 -171 192 -324 202 -340 9 -16 72 -123 141 -237 68 -115
184 -310 257 -434 73 -124 146 -247 163 -275 16 -27 38 -63 47 -80 10 -16 111
-187 225 -380 114 -192 216 -363 225 -380 10 -16 50 -84 90 -150 40 -66 84
-140 98 -165 14 -25 36 -62 49 -83 13 -21 33 -55 45 -75 11 -20 69 -118 128
-217 115 -193 356 -599 386 -652 11 -18 87 -146 169 -284 83 -138 161 -270
174 -293 49 -85 284 -482 306 -516 12 -19 67 -111 122 -205 55 -93 183 -309
283 -480 101 -170 190 -321 199 -335 35 -56 111 -183 111 -186 0 -2 19 -34 42
-71 23 -38 62 -104 88 -148 40 -69 240 -406 504 -850 39 -66 76 -127 81 -137
6 -9 26 -43 45 -75 19 -32 39 -67 45 -78 6 -11 38 -65 72 -120 68 -114 269
-452 528 -890 97 -165 194 -327 214 -360 21 -33 41 -67 44 -75 4 -8 15 -28 26
-45 41 -68 335 -563 359 -605 13 -25 33 -56 42 -70 9 -14 19 -29 21 -35 4 -11
231 -393 258 -435 8 -14 21 -34 27 -45 21 -39 171 -291 197 -332 15 -24 27
-45 27 -47 0 -3 23 -41 50 -86 28 -45 50 -83 50 -86 0 -2 15 -28 34 -57 33
-51 319 -530 342 -574 7 -12 79 -133 160 -270 81 -136 153 -257 159 -268 6
-11 84 -144 174 -295 348 -584 414 -696 431 -725 9 -16 39 -66 65 -110 26 -44
55 -93 65 -110 19 -34 433 -729 603 -1015 60 -102 119 -201 130 -220 10 -19
47 -82 82 -140 35 -58 113 -189 174 -292 l112 -188 13493 0 13493 0 -1 17732
-1 17733 -13493 1 -13492 1 -51 -86z m20167 -6673 c5 -6 10 -21948 5 -22013
-1 -12 -16059 -14 -16078 -2 -7 5 -13 12 -13 17 0 5 -32 62 -70 127 -39 65
-75 125 -80 133 -14 24 -400 673 -411 690 -5 8 -56 96 -114 195 -58 99 -110
187 -115 195 -5 8 -27 44 -48 80 -245 412 -337 568 -346 585 -6 11 -19 31 -27
45 -9 14 -76 126 -149 250 -73 124 -145 245 -160 270 -15 25 -87 146 -160 270
-73 124 -167 281 -208 350 -41 69 -83 140 -94 158 -28 50 -175 298 -218 367
-20 33 -61 102 -91 153 -30 52 -59 101 -64 110 -15 24 -138 233 -150 254 -5
10 -100 169 -210 354 -110 185 -210 353 -222 374 -12 21 -40 68 -62 105 -23
37 -41 68 -41 70 0 2 -23 40 -51 85 -28 45 -58 96 -68 114 -10 17 -97 165
-194 329 -98 163 -256 431 -354 595 -97 163 -186 313 -197 333 -12 20 -81 137
-154 260 -74 123 -139 233 -145 244 -7 11 -27 43 -44 72 -18 30 -33 55 -33 57
0 2 -31 55 -69 118 -38 62 -78 129 -89 148 -11 19 -70 121 -132 225 -135 227
-275 463 -379 638 -42 71 -81 136 -86 145 -6 9 -37 62 -69 117 -104 175 -435
734 -531 895 -50 85 -158 268 -240 405 -81 138 -166 282 -190 320 -23 39 -133
224 -244 411 l-202 342 142 238 c78 132 153 259 167 284 13 25 33 57 43 72 11
14 19 30 19 34 0 4 6 15 14 23 7 9 25 36 38 61 14 25 72 124 129 220 121 202
266 447 292 491 9 16 96 163 194 327 97 163 212 358 256 432 44 74 123 207
175 295 155 262 224 378 244 415 11 19 26 42 34 51 8 8 14 19 14 23 0 5 33 63
74 130 40 66 81 135 90 151 9 17 25 44 36 60 11 17 24 39 29 50 5 11 21 37 35
58 14 21 26 39 26 41 0 2 48 84 107 182 58 99 113 190 120 204 8 14 24 41 35
60 12 19 26 44 32 55 6 11 78 133 160 270 233 391 510 859 656 1105 73 124
149 252 170 285 20 33 39 65 41 70 2 6 76 132 165 280 246 413 427 718 440
740 12 22 116 198 266 450 103 173 321 542 510 860 65 110 122 207 128 215 9
15 110 186 140 239 9 14 56 94 105 176 49 83 97 162 105 176 8 14 40 67 70
118 30 51 63 106 73 122 9 16 83 141 164 277 80 136 202 342 270 457 69 116
129 217 134 225 5 8 54 92 109 185 55 94 104 177 109 185 51 83 197 331 208
350 7 14 46 79 86 145 l73 120 3239 5 c4886 8 12822 6 12831 -2z"/>
</g>
</svg>
