<svg xmlns="http://www.w3.org/2000/svg" width="1280" height="871" viewBox="0 0 1280 871"><g transform="translate(0 -229)"><rect width="403" height="560" transform="translate(438 540)" fill="#484440"/><text transform="translate(519 773)" fill="#fff" font-size="80" font-family="BebasNeue, Bebas Neue" letter-spacing="0.01em"><tspan x="0" y="0">YES</tspan></text><text transform="translate(693.862 773)" fill="#fff" font-size="80" font-family="BebasNeue, Bebas Neue" letter-spacing="0.01em"><tspan x="0" y="0">NO</tspan></text><text transform="translate(449 229)" fill="#e55d1e" font-size="36" font-family="BebasNeue, Bebas Neue" letter-spacing="0.065em"><tspan x="76.934" y="32">IS YOUR BUSINESS </tspan><tspan x="62.102" y="70">PROTECTED AGAINST</tspan><tspan font-size="95" font-family="BebasNeueBold, Bebas Neue" letter-spacing="0.01em"><tspan x="96.617" y="162">CYBER </tspan><tspan x="44.368" y="277">ATTACKS?</tspan></tspan></text><rect width="449" height="871" transform="translate(0 229)" fill="#484440"/><rect width="100" height="100" transform="translate(25 254)" fill="#4e4e4e"/><rect width="100" height="100" transform="translate(25 402)" fill="#4e4e4e"/><rect width="100" height="100" transform="translate(25 550)" fill="#4e4e4e"/><rect width="100" height="100" transform="translate(26 698)" fill="#4e4e4e"/><rect width="100" height="100" transform="translate(26 846)" fill="#4e4e4e"/><rect width="100" height="100" transform="translate(26 1000)" fill="#948923"/><rect width="100" height="100" transform="translate(173.919 254)" fill="#4e4e4e"/><rect width="100" height="100" transform="translate(173.919 402)" fill="#4e4e4e"/><rect width="100" height="100" transform="translate(173.919 550)" fill="#948923"/><rect width="100" height="100" transform="translate(174.919 698)" fill="#4e4e4e"/><rect width="100" height="100" transform="translate(174.919 846)" fill="#4e4e4e"/><rect width="100" height="100" transform="translate(174.919 1000)" fill="#4e4e4e"/><rect width="100" height="100" transform="translate(322.838 254)" fill="#4e4e4e"/><rect width="100" height="100" transform="translate(322.838 402)" fill="#4e4e4e"/><rect width="100" height="100" transform="translate(322.838 550)" fill="#948923"/><rect width="100" height="100" transform="translate(323.838 698)" fill="#4e4e4e"/><rect width="100" height="100" transform="translate(323.838 846)" fill="#4e4e4e"/><rect width="100" height="100" transform="translate(323.838 1000)" fill="#4e4e4e"/><rect width="449" height="871" transform="translate(831 229)" fill="#484440"/><rect width="100" height="100" transform="translate(856 254)" fill="#4e4e4e"/><rect width="100" height="100" transform="translate(856 402)" fill="#4e4e4e"/><rect width="100" height="100" transform="translate(856 550)" fill="#4e4e4e"/><rect width="100" height="100" transform="translate(857 698)" fill="#4e4e4e"/><rect width="100" height="100" transform="translate(857 846)" fill="#4e4e4e"/><rect width="100" height="100" transform="translate(857 1000)" fill="#4e4e4e"/><rect width="100" height="100" transform="translate(1004.919 254)" fill="#4e4e4e"/><rect width="100" height="100" transform="translate(1004.919 402)" fill="#948923"/><rect width="100" height="100" transform="translate(1004.919 550)" fill="#4e4e4e"/><rect width="100" height="100" transform="translate(1005.919 698)" fill="#4e4e4e"/><rect width="100" height="100" transform="translate(1005.919 846)" fill="#4e4e4e"/><rect width="100" height="100" transform="translate(1005.919 1000)" fill="#4e4e4e"/><rect width="100" height="100" transform="translate(1153.838 254)" fill="#4e4e4e"/><rect width="100" height="100" transform="translate(1153.838 402)" fill="#4e4e4e"/><rect width="100" height="100" transform="translate(1153.838 550)" fill="#4e4e4e"/><rect width="100" height="100" transform="translate(1154.838 698)" fill="#4e4e4e"/><rect width="100" height="100" transform="translate(1154.838 846)" fill="#948923"/><rect width="100" height="100" transform="translate(1154.838 1000)" fill="#4e4e4e"/></g></svg>