<svg xmlns="http://www.w3.org/2000/svg" width="425" height="811" viewBox="0 0 425 811">
   <g transform="translate(-428 -135)">
      <text transform="translate(640 246)" fill="#fff" font-size="40" font-family="BebasNeue, Bebas Neue" letter-spacing="0.03em">
         <tspan x="-133.64" y="0">SMARTPHONE HACKS</tspan>
      </text>
      <path d="M0,0H425a0,0,0,0,1,0,0V20a25,25,0,0,1-25,25H25A25,25,0,0,1,0,20V0A0,0,0,0,1,0,0Z" transform="translate(428 901)" fill="#707070"/>
      <path d="M25,0H400a25,25,0,0,1,25,25V45a0,0,0,0,1,0,0H0a0,0,0,0,1,0,0V25A25,25,0,0,1,25,0Z" transform="translate(428 135)" fill="#707070"/>
      <g transform="translate(428 135)" fill="none" stroke="#fff" stroke-width="3">
         <rect width="425" height="811" rx="20" stroke="none"/>
         <rect x="1.5" y="1.5" width="422" height="808" rx="18.5" fill="none"/>
      </g>
      <g transform="translate(-42)">
         <g transform="translate(798 148)">
            <path d="M0,0H24V24H0Z" fill="none"/>
            <path d="M16.478,3.963H14.653V2H10.28V3.963H8.454A1.392,1.392,0,0,0,7,5.268V20.312a1.393,1.393,0,0,0,1.454,1.315h8.013a1.4,1.4,0,0,0,1.465-1.305V5.268A1.392,1.392,0,0,0,16.478,3.963Z" transform="translate(-0.466 0.186)" fill="#fff"/>
         </g>
         <g transform="translate(745.13 148.13)">
            <path d="M11.947,21.39,23.514,6.978A19.207,19.207,0,0,0,11.937,3,19.174,19.174,0,0,0,.36,6.978L11.927,21.39l.01.01Z" transform="translate(-0.002 -0.016)" fill="rgba(255,255,255,0.6)"/>
            <path d="M0,0H23.87V23.87H0Z" fill="none"/>
            <path d="M3.53,10.934l8.414,10.483.01.01.01-.01,8.414-10.483A13.9,13.9,0,0,0,11.954,8,13.9,13.9,0,0,0,3.53,10.934Z" transform="translate(-0.019 -0.043)" fill="#fffefe"/>
         </g>
         <g transform="translate(771 148.219)">
            <path d="M2,21.811H21.811V2Z" transform="translate(0.095 0.095)" fill="rgba(255,255,255,0.6)"/>
            <path d="M14.568,10,2,22.568H14.568Z" transform="translate(0.095 -0.663)" fill="#fff"/>
            <path d="M0,0H24V24H0Z" fill="none"/>
         </g>
      </g>
      <g transform="translate(471 -1159)">
         <text transform="translate(311 1327)" fill="#fff" font-size="24" font-family="Roboto-Light, Roboto" font-weight="300">
            <tspan x="0" y="0">20:49</tspan>
         </text>
      </g>
      <path d="M0,0H107.261V107.261H0Z" transform="translate(586.37 326.108)" fill="rgba(0,0,0,0)"/>
      <path d="M89.384,66.569a8.927,8.927,0,0,0,8.894-8.938l.045-44.692A8.965,8.965,0,0,0,89.384,4H17.877a8.965,8.965,0,0,0-8.938,8.938V57.631a8.965,8.965,0,0,0,8.938,8.938H0v8.938H107.261V66.569ZM17.877,12.938H89.384V57.631H17.877Z" transform="translate(586.37 339.985)" fill="#e55d1e"/>
      <g transform="translate(586.37 510.369)">
         <path d="M0,0H107.261V107.261H0Z" fill="none"/>
         <path d="M75.507,25.346H62.949a26.747,26.747,0,0,0-8.134-8.76L62.1,9.3,55.8,3l-9.7,9.7a27.108,27.108,0,0,0-6.346-.76,26.449,26.449,0,0,0-6.3.76L23.709,3l-6.3,6.3,7.24,7.285a27.093,27.093,0,0,0-8.089,8.76H4v8.938h9.341a29.666,29.666,0,0,0-.4,4.469v4.469H4v8.938h8.938v4.469a29.666,29.666,0,0,0,.4,4.469H4v8.938H16.558a26.768,26.768,0,0,0,46.39,0H75.507V61.1H66.167a29.667,29.667,0,0,0,.4-4.469V52.161h8.938V43.223H66.569V38.754a29.667,29.667,0,0,0-.4-4.469h9.341ZM57.631,43.223V56.631a19.027,19.027,0,0,1-.313,3.128l-.447,2.9-1.654,2.9a17.845,17.845,0,0,1-30.927,0l-1.654-2.86-.447-2.9a19.082,19.082,0,0,1-.313-3.173V38.754a18.105,18.105,0,0,1,.313-3.128l.447-2.9,1.654-2.9A18.322,18.322,0,0,1,29.7,23.961l2.547-1.743,3.307-.8a16.923,16.923,0,0,1,4.2-.536A17.275,17.275,0,0,1,44,21.413l3.039.715,2.726,1.877a17.407,17.407,0,0,1,5.408,5.855l1.7,2.9.447,2.9a18.039,18.039,0,0,1,.313,3.084v4.469ZM30.815,52.161H48.692V61.1H30.815Zm0-17.877H48.692v8.938H30.815Z" transform="translate(13.877 10.408)" fill="#e55d1e"/>
      </g>
      <g transform="translate(586.37 694.631)">
         <path d="M52.426,85.636,104.4,20.877A86.31,86.31,0,0,0,52.382,3,86.161,86.161,0,0,0,.36,20.877L52.337,85.636l.045.045Z" transform="translate(1.249 10.408)" fill="rgba(229,93,30,0.3)"/>
         <path d="M0,0H107.261V107.261H0Z" fill="none"/>
         <path d="M3.53,21.184,41.34,68.29l.045.045.045-.045,37.81-47.105A62.467,62.467,0,0,0,41.384,8,62.467,62.467,0,0,0,3.53,21.184Z" transform="translate(12.246 27.754)" fill="#e55d1e"/>
      </g>
      <path d="M175.576,152.147h-3.8v13.429h-5.645v-8.438h-6.18v8.438H154.3V152.147h-3.8L163.038,140.5Z" transform="translate(477 770)" fill="none" stroke="#fff" stroke-width="2"/>
   </g>
</svg>