<svg xmlns="http://www.w3.org/2000/svg" width="302.665" height="203.048" viewBox="0 0 302.665 203.048">
   <g transform="translate(-489 -365.11)">
      <path d="M0,0H32.441V32.441H0Z" transform="translate(713.004 535.716)" fill="none"/>
      <g transform="translate(0 50)">
         <rect width="302.64" height="24.332" transform="translate(489 316)" fill="#c7c7c7"/>
         <text transform="translate(515 335.11)" fill="#1c1c1c" font-size="22" font-family="BebasNeue, Bebas Neue">
            <tspan x="0" y="0">Do you want to install this program?</tspan>
         </text>
         <path d="M1,16.984H18.35L9.675,2Zm9.464-2.366H8.887V13.041h1.577Zm0-3.155H8.887V8.309h1.577Z" transform="translate(492.619 318.539)" fill="#e31019"/>
         <rect width="302.665" height="80" transform="translate(489 340)" fill="rgba(255,255,255,0.12)"/>
         <text transform="translate(534 402)" fill="#e31019" font-size="18" font-family="BebasNeue, Bebas Neue">
            <tspan x="0" y="0">The program source is not trusted!</tspan>
         </text>
         <text transform="translate(554 367)" fill="#fff" font-size="13" font-family="CourierNewPSMT, Courier New">
            <tspan x="0" y="0">abc.exe</tspan>
         </text>
         <text transform="translate(515 368)" fill="#fff" font-size="18" font-family="BebasNeue, Bebas Neue">
            <tspan x="0" y="0">name:</tspan>
         </text>
      </g>
      <g transform="translate(556.996 524)">
         <rect width="50" height="35" fill="#383838"/>
         <text transform="translate(9 27)" fill="#fff" font-size="28" font-family="BebasNeue, Bebas Neue">
            <tspan x="0" y="0">YES</tspan>
         </text>
      </g>
      <g transform="translate(663.004 523)">
         <rect width="50" height="35" fill="#fff"/>
         <text transform="translate(14 28)" fill="#1c1c1c" font-size="28" font-family="BebasNeue, Bebas Neue">
            <tspan x="0" y="0">NO</tspan>
         </text>
      </g>
   </g>
</svg>