<svg xmlns="http://www.w3.org/2000/svg" width="107.261" height="107.261" viewBox="0 0 107.261 107.261"><path d="M0,0H107.261V107.261H0Z" fill="none"/><path d="M75.507,25.346H62.949a26.747,26.747,0,0,0-8.134-8.76L62.1,9.3,55.8,3l-9.7,9.7a27.108,27.108,0,0,0-6.346-.76,26.449,26.449,0,0,0-6.3.76L23.709,3l-6.3,6.3,7.24,7.285a27.093,27.093,0,0,0-8.089,8.76H4v8.938h9.341a29.666,29.666,0,0,0-.4,4.469v4.469H4v8.938h8.938v4.469a29.666,29.666,0,0,0,.4,4.469H4v8.938H16.558a26.768,26.768,0,0,0,46.39,0H75.507V61.1H66.167a29.667,29.667,0,0,0,.4-4.469V52.161h8.938V43.223H66.569V38.754a29.667,29.667,0,0,0-.4-4.469h9.341ZM57.631,43.223V56.631a19.027,19.027,0,0,1-.313,3.128l-.447,2.9-1.654,2.9a17.845,17.845,0,0,1-30.927,0l-1.654-2.86-.447-2.9a19.082,19.082,0,0,1-.313-3.173V38.754a18.105,18.105,0,0,1,.313-3.128l.447-2.9,1.654-2.9A18.322,18.322,0,0,1,29.7,23.961l2.547-1.743,3.307-.8a16.923,16.923,0,0,1,4.2-.536A17.275,17.275,0,0,1,44,21.413l3.039.715,2.726,1.877a17.407,17.407,0,0,1,5.408,5.855l1.7,2.9.447,2.9a18.039,18.039,0,0,1,.313,3.084v4.469ZM30.815,52.161H48.692V61.1H30.815Zm0-17.877H48.692v8.938H30.815Z" transform="translate(13.877 10.408)" fill="#e55d1e"/></svg>