<svg xmlns="http://www.w3.org/2000/svg" width="324" height="339" viewBox="0 0 324 339"><g transform="translate(-478 -356)"><text transform="translate(640 384)" fill="#fff" font-size="31" font-family="BebasNeue, Bebas Neue" letter-spacing="0.026em"><tspan x="-161.836" y="0">select the secure passwords</tspan></text><rect width="324" height="50" transform="translate(478 405)" fill="rgba(255,255,255,0.8)"/><g transform="translate(415 4)"><path d="M22-623v14H8v-14Zm0-2H8a2.006,2.006,0,0,0-2,2v14a2.006,2.006,0,0,0,2,2H22a2.006,2.006,0,0,0,2-2v-14A2.006,2.006,0,0,0,22-625Z" transform="translate(77 1042)" fill="#639"/></g><text transform="translate(640 437)" fill="#1c1c1c" font-size="25" font-family="CourierNewPSMT, Courier New"><tspan x="-82.513" y="0">Password123</tspan></text><g transform="translate(0 120)"><rect width="324" height="50" transform="translate(478 405)" fill="rgba(255,255,255,0.8)"/><g transform="translate(415 4)"><path d="M22-623v14H8v-14Zm0-2H8a2.006,2.006,0,0,0-2,2v14a2.006,2.006,0,0,0,2,2H22a2.006,2.006,0,0,0,2-2v-14A2.006,2.006,0,0,0,22-625Z" transform="translate(77 1042)" fill="#639"/></g></g><text transform="translate(640 557)" fill="#1c1c1c" font-size="25" font-family="CourierNewPSMT, Courier New"><tspan x="-52.509" y="0">admin01</tspan></text><g transform="translate(0 180)"><rect width="324" height="50" transform="translate(478 405)" fill="rgba(255,255,255,0.8)"/><g transform="translate(415 4)"><path d="M22-623v14H8v-14Zm0-2H8a2.006,2.006,0,0,0-2,2v14a2.006,2.006,0,0,0,2,2H22a2.006,2.006,0,0,0,2-2v-14A2.006,2.006,0,0,0,22-625Z" transform="translate(77 1042)" fill="#639"/></g></g><text transform="translate(640 617)" fill="#1c1c1c" font-size="25" font-family="CourierNewPSMT, Courier New"><tspan x="-60.01" y="0">pA33w0rd</tspan></text><g transform="translate(0 60)"><rect width="324" height="50" transform="translate(478 405)" fill="rgba(255,255,255,0.8)"/><g transform="translate(415 4)"><path d="M22-623v14H8v-14Zm0-2H8a2.006,2.006,0,0,0-2,2v14a2.006,2.006,0,0,0,2,2H22a2.006,2.006,0,0,0,2-2v-14A2.006,2.006,0,0,0,22-625Z" transform="translate(77 1042)" fill="#639"/></g></g><text transform="translate(640 497)" fill="#1c1c1c" font-size="25" font-family="CourierNewPSMT, Courier New"><tspan x="-67.511" y="0">MyDogName</tspan></text><g transform="translate(0 240)"><rect width="324" height="50" transform="translate(478 405)" fill="rgba(255,255,255,0.8)"/><g transform="translate(415 4)"><path d="M22-623v14H8v-14Zm0-2H8a2.006,2.006,0,0,0-2,2v14a2.006,2.006,0,0,0,2,2H22a2.006,2.006,0,0,0,2-2v-14A2.006,2.006,0,0,0,22-625Z" transform="translate(77 1042)" fill="#639"/></g></g><text transform="translate(640 677)" fill="#1c1c1c" font-size="25" font-family="CourierNewPSMT, Courier New"><tspan x="-82.513" y="0">Anniversary</tspan></text></g></svg>