<svg xmlns="http://www.w3.org/2000/svg" width="425.5" height="811" viewBox="0 0 425.5 811"><g transform="translate(-427 -135)"><rect width="424" height="723" transform="translate(428 179)" fill="rgba(255,255,255,0.15)"/><path d="M0,0H425a0,0,0,0,1,0,0V20a25,25,0,0,1-25,25H25A25,25,0,0,1,0,20V0A0,0,0,0,1,0,0Z" transform="translate(427 901)" fill="#707070"/><path d="M20,0H405a20,20,0,0,1,20,20V45a0,0,0,0,1,0,0H0a0,0,0,0,1,0,0V20A20,20,0,0,1,20,0Z" transform="translate(427.5 135)" fill="#707070"/><g transform="translate(427.5 135)" fill="none" stroke="#fff" stroke-width="3"><rect width="425" height="811" rx="20" stroke="none"/><rect x="1.5" y="1.5" width="422" height="808" rx="18.5" fill="none"/></g><g transform="translate(-42.5)"><g transform="translate(798 148)"><path d="M0,0H24V24H0Z" fill="none"/><path d="M16.478,3.963H14.653V2H10.28V3.963H8.454A1.392,1.392,0,0,0,7,5.268V20.312a1.393,1.393,0,0,0,1.454,1.315h8.013a1.4,1.4,0,0,0,1.465-1.305V5.268A1.392,1.392,0,0,0,16.478,3.963Z" transform="translate(-0.466 0.186)" fill="#fff"/></g><g transform="translate(745.13 148.13)"><path d="M11.947,21.39,23.514,6.978A19.207,19.207,0,0,0,11.937,3,19.174,19.174,0,0,0,.36,6.978L11.927,21.39l.01.01Z" transform="translate(-0.002 -0.016)" fill="rgba(255,255,255,0.6)"/><path d="M0,0H23.87V23.87H0Z" fill="none"/><path d="M3.53,10.934l8.414,10.483.01.01.01-.01,8.414-10.483A13.9,13.9,0,0,0,11.954,8,13.9,13.9,0,0,0,3.53,10.934Z" transform="translate(-0.019 -0.043)" fill="#fffefe"/></g><g transform="translate(771 148.219)"><path d="M2,21.811H21.811V2Z" transform="translate(0.095 0.095)" fill="rgba(255,255,255,0.6)"/><path d="M14.568,10,2,22.568H14.568Z" transform="translate(0.095 -0.663)" fill="#fff"/><path d="M0,0H24V24H0Z" fill="none"/></g><g transform="translate(513 -1159)"><text transform="translate(311 1327)" fill="#fff" font-size="24" font-family="Roboto-Light, Roboto" font-weight="300"><tspan x="0" y="0">20:49</tspan></text></g></g><text transform="translate(640 255)" fill="#fff" font-size="45" font-family="BebasNeue, Bebas Neue" letter-spacing="0.03em"><tspan x="-113.895" y="0">PASSWORD LIST</tspan></text><text transform="translate(640 384)" fill="#fff" font-size="31" font-family="BebasNeue, Bebas Neue" letter-spacing="0.026em"><tspan x="-161.836" y="0">select the secure passwords</tspan></text><rect width="324" height="50" transform="translate(478 405)" fill="rgba(255,255,255,0.8)"/><g transform="translate(415 4)"><path d="M22-623v14H8v-14Zm0-2H8a2.006,2.006,0,0,0-2,2v14a2.006,2.006,0,0,0,2,2H22a2.006,2.006,0,0,0,2-2v-14A2.006,2.006,0,0,0,22-625Z" transform="translate(77 1042)" fill="#639"/></g><g transform="translate(0 60)"><rect width="324" height="50" transform="translate(478 405)" fill="rgba(255,255,255,0.8)"/><g transform="translate(415 4)"><path d="M22-623v14H8v-14Zm0-2H8a2.006,2.006,0,0,0-2,2v14a2.006,2.006,0,0,0,2,2H22a2.006,2.006,0,0,0,2-2v-14A2.006,2.006,0,0,0,22-625Z" transform="translate(77 1042)" fill="#639"/></g></g><g transform="translate(0 240)"><rect width="324" height="50" transform="translate(478 405)" fill="rgba(255,255,255,0.8)"/><g transform="translate(415 4)"><path d="M22-623v14H8v-14Zm0-2H8a2.006,2.006,0,0,0-2,2v14a2.006,2.006,0,0,0,2,2H22a2.006,2.006,0,0,0,2-2v-14A2.006,2.006,0,0,0,22-625Z" transform="translate(77 1042)" fill="#639"/></g></g><g transform="translate(0 120)"><rect width="324" height="50" transform="translate(478 405)" fill="rgba(255,255,255,0.8)"/><g transform="translate(415 4)"><path d="M22-623v14H8v-14Zm0-2H8a2.006,2.006,0,0,0-2,2v14a2.006,2.006,0,0,0,2,2H22a2.006,2.006,0,0,0,2-2v-14A2.006,2.006,0,0,0,22-625Z" transform="translate(77 1042)" fill="#639"/></g></g><g transform="translate(0 180)"><rect width="324" height="50" transform="translate(478 405)" fill="rgba(255,255,255,0.8)"/><g transform="translate(415 4)"><path d="M22-623v14H8v-14Zm0-2H8a2.006,2.006,0,0,0-2,2v14a2.006,2.006,0,0,0,2,2H22a2.006,2.006,0,0,0,2-2v-14A2.006,2.006,0,0,0,22-625Z" transform="translate(77 1042)" fill="#639"/></g></g><text transform="translate(640 437)" fill="#1c1c1c" font-size="25" font-family="CourierNewPSMT, Courier New"><tspan x="-82.513" y="0">Password123</tspan></text><text transform="translate(640 557)" fill="#1c1c1c" font-size="25" font-family="CourierNewPSMT, Courier New"><tspan x="-52.509" y="0">admin01</tspan></text><text transform="translate(640 617)" fill="#1c1c1c" font-size="25" font-family="CourierNewPSMT, Courier New"><tspan x="-60.01" y="0">pA33w0rd</tspan></text><text transform="translate(640 497)" fill="#1c1c1c" font-size="25" font-family="CourierNewPSMT, Courier New"><tspan x="-67.511" y="0">MyDogName</tspan></text><text transform="translate(640 677)" fill="#1c1c1c" font-size="25" font-family="CourierNewPSMT, Courier New"><tspan x="-82.513" y="0">Anniversary</tspan></text></g></svg>