<svg xmlns="http://www.w3.org/2000/svg" width="425.5" height="811" viewBox="0 0 425.5 811"><g transform="translate(-427.5 -135)"><path d="M0,0H425a0,0,0,0,1,0,0V20a25,25,0,0,1-25,25H25A25,25,0,0,1,0,20V0A0,0,0,0,1,0,0Z" transform="translate(427.5 901)" fill="#707070"/><path d="M25,0H400a25,25,0,0,1,25,25V45a0,0,0,0,1,0,0H0a0,0,0,0,1,0,0V25A25,25,0,0,1,25,0Z" transform="translate(428 135)" fill="#707070"/><g transform="translate(428 135)" fill="none" stroke="#fff" stroke-width="3"><rect width="425" height="811" rx="20" stroke="none"/><rect x="1.5" y="1.5" width="422" height="808" rx="18.5" fill="none"/></g><g transform="translate(-42)"><g transform="translate(798 148)"><path d="M0,0H24V24H0Z" fill="none"/><path d="M16.478,3.963H14.653V2H10.28V3.963H8.454A1.392,1.392,0,0,0,7,5.268V20.312a1.393,1.393,0,0,0,1.454,1.315h8.013a1.4,1.4,0,0,0,1.465-1.305V5.268A1.392,1.392,0,0,0,16.478,3.963Z" transform="translate(-0.466 0.186)" fill="#fff"/></g><g transform="translate(745.13 148.13)"><path d="M11.947,21.39,23.514,6.978A19.207,19.207,0,0,0,11.937,3,19.174,19.174,0,0,0,.36,6.978L11.927,21.39l.01.01Z" transform="translate(-0.002 -0.016)" fill="rgba(255,255,255,0.6)"/><path d="M0,0H23.87V23.87H0Z" fill="none"/><path d="M3.53,10.934l8.414,10.483.01.01.01-.01,8.414-10.483A13.9,13.9,0,0,0,11.954,8,13.9,13.9,0,0,0,3.53,10.934Z" transform="translate(-0.019 -0.043)" fill="#fffefe"/></g><g transform="translate(771 148.219)"><path d="M2,21.811H21.811V2Z" transform="translate(0.095 0.095)" fill="rgba(255,255,255,0.6)"/><path d="M14.568,10,2,22.568H14.568Z" transform="translate(0.095 -0.663)" fill="#fff"/><path d="M0,0H24V24H0Z" fill="none"/></g></g><g transform="translate(471 -1159)"><text transform="translate(311 1327)" fill="#fff" font-size="24" font-family="Roboto-Light, Roboto" font-weight="300"><tspan x="0" y="0">20:49</tspan></text></g></g></svg>